<svg width="512" height="512" viewBox="0 0 512 512" fill="none" xmlns="http://www.w3.org/2000/svg">
  <g id="sticker 1">
    <g id="right-leg">
      <path id="Vector" fill-rule="evenodd" clip-rule="evenodd" d="M150.848 381.692C146.57 384.314 140.745 388.942 137.801 386.036C134.754 383.02 137.456 375.397 138.644 371.44C142.872 357.467 149.886 345.129 158.184 333.007C163.237 325.616 169.764 316.644 179.836 310.431C187.726 305.562 197.071 301.053 206.146 297.798C208.978 296.782 212.208 295.585 214.598 295.018C235.414 290.062 254.765 307.687 260.602 313.665C262.329 315.427 262.598 318.444 261.764 319.925C260.5 322.169 255.889 323.705 253.378 324.744C244.376 328.453 234.308 331.476 225.577 334.821C198.655 345.135 180.3 360.879 170.799 378.838C167.116 385.807 164.754 391.804 160.228 399.177C158.589 401.846 156.977 404.676 153.989 404.171C150.164 403.519 150.701 396.087 150.675 393.305C150.626 388.864 151.091 385.635 150.848 381.692Z" fill="white"/>
      <path id="Vector_2" d="M160.231 399.178C164.757 391.806 167.119 385.808 170.802 378.839C171.598 377.346 172.467 375.875 173.382 374.412L144.369 356.625C142.139 361.392 140.202 366.303 138.645 371.441C137.457 375.398 134.754 383.021 137.802 386.037C140.745 388.943 146.571 384.315 150.849 381.693C151.092 385.636 150.627 388.865 150.679 393.306C150.705 396.089 150.169 403.52 153.993 404.172C156.98 404.677 158.591 401.847 160.231 399.178Z" fill="#242424"/>
      <path id="Vector_3" fill-rule="evenodd" clip-rule="evenodd" d="M199.434 336.836C206.691 329.055 206.284 319.235 202.926 311.426C201.677 308.507 199.558 305.021 196.834 301.542C190.867 304.182 185.035 307.224 179.838 310.431C170.988 315.89 164.876 323.477 160.095 330.253C172.265 343.661 187.699 349.416 199.434 336.836Z" fill="#292929"/>
    </g>
    <g id="right-hand">
      <path id="Vector_4" fill-rule="evenodd" clip-rule="evenodd" d="M258.768 162.063C260.249 161.98 258.598 159.023 261.017 159.032C263.62 161.056 263.738 164.175 264.395 166.53C265.793 171.503 266.934 175.936 267.674 181.606C268.009 184.24 268.586 187.358 267.372 188.957C266.222 190.466 261.396 191.534 258.157 192.163C248.98 193.937 239.099 194.218 230.616 194.195C205.52 194.131 183.218 188.79 159.39 175.174C154.117 172.157 146.719 166.462 142.368 163.063C140.176 161.35 137.176 159.147 133.944 156.147C130.975 153.39 126.541 149.734 127.838 147.73C129.659 144.919 134.712 147.359 137.568 148.049C141.071 148.89 144.87 149.533 147.133 150.085C146.41 145.982 138.788 135.432 138.657 130.582C138.52 125.269 144.792 130.539 147.123 132.727C154.148 139.315 161.289 144.04 168.333 148.504C187.817 160.856 207.399 168.895 227.594 167.855C238.089 167.319 247.633 164.458 258.768 162.063Z" fill="#EAEAEA"/>
      <path id="Vector_5" d="M147.122 132.726C144.791 130.539 138.519 125.268 138.656 130.581C138.786 135.431 146.409 145.98 147.132 150.084C144.869 149.531 141.071 148.889 137.567 148.048C134.711 147.358 129.658 144.918 127.837 147.729C126.54 149.732 130.974 153.389 133.943 156.146C137.174 159.146 140.175 161.35 142.367 163.062C143.692 164.097 145.306 165.344 147.049 166.664L162.866 144.967C157.611 141.473 152.336 137.616 147.122 132.726Z" fill="#292929"/>
      <path id="Vector_6" fill-rule="evenodd" clip-rule="evenodd" d="M204.034 191.857C201.114 188.91 198.966 184.695 197.365 181.515C194.502 175.843 191.677 169.609 186.584 166.735C179.889 162.948 170.445 164.491 165.116 167.037C162.033 168.516 159.092 171.148 155.885 172.994C157.113 173.804 158.298 174.547 159.39 175.172C174.517 183.817 189.031 189.116 204.034 191.857Z" fill="#292929"/>
      <path id="Vector_7" fill-rule="evenodd" clip-rule="evenodd" d="M236.374 181.558C233.783 180.727 230.917 181.537 228.737 182.704C226.656 183.814 224.946 185.354 223.316 186.85C221.25 188.746 219.39 191.692 216.86 193.589C221.367 193.986 225.942 194.182 230.615 194.194C234.502 194.205 238.687 194.143 242.959 193.911C241.994 188.427 240.391 182.844 236.374 181.558Z" fill="#292929"/>
    </g>
    <g id="body">
      <path id="Vector_8" fill-rule="evenodd" clip-rule="evenodd" d="M306.551 91.86C305.632 92.122 307.269 93.405 306.284 93.733C299.452 89.817 291.525 94.853 286.2 99.088C282.158 102.308 278.695 105.974 275.757 109.262C261.136 125.65 249.562 143.878 239.199 163.964C235.555 171.027 249.468 179.491 246.044 187.014C244.252 190.951 224.975 193.834 223.173 198.056C216.742 213.119 211.151 230.318 212.837 251.978C213.768 263.957 215.95 276.021 219.262 286.785C222.512 297.349 227.331 306.347 235.327 311.69C240.774 315.325 248.775 316.844 257.019 317.846C265.393 318.864 274.355 319.906 281.914 320.525C299.184 321.935 319.214 321.064 332.792 317.31C347.187 313.332 357.319 305.865 364.384 293.482C371.029 281.832 374.681 266.35 372.952 247.96C369.893 215.376 355.474 190.584 342.697 167.635C335.979 155.571 328.944 144.384 321.815 133.092C318.054 127.134 314.716 121.541 312.175 115.153C309.489 108.413 307.701 100.814 306.818 91.859C306.731 91.86 306.643 91.86 306.551 91.86Z" fill="#EAEAEA"/>
      <path id="Vector_9" fill-rule="evenodd" clip-rule="evenodd" d="M372.953 247.96C369.894 215.375 355.475 190.584 342.698 167.635C335.98 155.571 328.945 144.384 321.816 133.092C318.055 127.134 314.717 121.541 312.176 115.153C310.309 110.468 308.886 105.354 307.889 99.672C307.889 99.747 307.895 99.816 307.893 99.893C307.683 109.644 298.054 115.805 293.434 123.187C288.82 130.547 284.996 144.095 289.416 154.512C292.775 162.428 301.416 167.596 309.228 172.72C316.005 177.163 326.21 183.908 327.169 192.804C328.324 203.519 318.19 206.784 312.712 211.546C310.253 213.682 307.718 215.926 305.748 218.775C303.684 221.77 302.018 225.826 302.8 229.754C304.699 239.234 322.806 241.884 331.721 244.75C342.889 248.34 352.426 253.065 357.155 262.958C359.985 268.864 360.013 278.596 352.877 280.897C347.912 282.499 341.354 280.066 335.47 279.558C328.159 278.927 321.216 279.917 316.194 282.504C310.473 285.447 305.08 291.457 304.947 300.176C304.836 307.22 308.814 313.747 312.979 318.921C313.4 319.443 313.843 319.943 314.291 320.437C321.082 319.816 327.442 318.791 332.793 317.312C347.188 313.334 357.32 305.867 364.385 293.484C371.03 281.832 374.682 266.35 372.953 247.96Z" fill="#292929"/>
      <path id="Vector_10" fill-rule="evenodd" clip-rule="evenodd" d="M246.078 219.887C250.467 217.097 255.09 215.097 258.773 211.319C264.598 205.352 267.376 196.314 267.513 188.28C267.707 176.662 262.897 166.758 260.681 155.459C258.931 146.524 259.059 137.349 261.638 126.887C248.817 144.664 238.437 164.308 228.635 185.842C220.447 203.828 210.677 224.247 212.836 251.977C213.767 263.956 215.949 276.02 219.261 286.784C222.131 296.112 226.228 304.214 232.652 309.662C234.301 307.836 235.764 305.414 236.888 302.702C239.335 296.771 242.375 290.317 243.994 285.052C247.493 273.68 243.694 267.954 239.218 260.064C236.884 255.949 234.716 251.206 233.709 246.748C232.738 242.418 232.126 236.886 234.595 231.436C236.936 226.27 241.902 222.54 246.078 219.887Z" fill="#292929"/>
    </g>
    <g id="toy">
      <path id="Vector_11" fill-rule="evenodd" clip-rule="evenodd" d="M147.342 230.99C150.907 231.328 157.986 231.845 161.381 230.128C161.225 223.502 159.982 212.551 157.927 205.514C157.358 203.56 156.441 199.252 153.609 199.252C151.164 199.252 150.333 202.585 149.716 205.08C148.424 210.324 148.032 216.447 147.559 222.355C147.319 225.38 146.681 228.384 147.342 230.99Z" fill="#FF4E4E"/>
      <path id="Vector_12" fill-rule="evenodd" clip-rule="evenodd" d="M188.157 230.343C188.771 227.872 190.281 226.214 189.881 222.354C189.635 219.949 188.027 217.277 186.428 215.662C182.781 211.974 174.74 208.783 168.721 208.32C160.375 207.675 158.162 212.969 156.411 219.548C155.202 216.48 155.072 210.165 151.233 210.694C147.968 211.145 148.712 218.199 148.856 222.139C145.806 219.5 142.868 212.751 136.547 213.933C129.26 215.301 131.369 228.85 132.881 235.741C133.76 236.084 133.798 237.27 134.605 237.688C138.675 236.849 141.687 235.576 146.695 235.741C175.639 236.71 190.727 257.124 205.864 273.747C209.601 277.857 212.847 282.433 216.007 287.786C217.275 289.919 219.361 294.778 220.76 290.807C225.414 289.146 231.565 284.179 235.231 279.797C236.996 277.68 239.648 274.657 237.388 271.588C235.695 269.287 230.209 269.559 226.808 270.508C227.479 268.805 230.195 266.754 229.617 264.031C228.946 260.882 224.522 261.983 222.058 263.166C222.996 260.842 224.711 257.955 224.647 254.315C224.559 248.454 220.307 245.289 214.719 245.246C211.45 245.218 208.324 246.292 205.216 247.403C205.542 245.957 211.19 241.774 208.457 239.414C205.634 236.979 201.373 242.039 198.954 242.867C201.529 239.404 205.082 230.463 200.898 226.889C197.006 223.565 191.053 228.656 188.157 230.343Z" fill="#32CCB0"/>
      <path id="Vector_13" fill-rule="evenodd" clip-rule="evenodd" d="M331.322 338.528C331.459 341.519 332.503 344.408 333.479 347.162C336.243 354.936 339.295 362.325 342.335 370.269C345.094 377.483 348.028 385.694 351.838 392.729C353.177 395.214 354.647 397.695 357.448 397.695C360.835 397.695 361.932 394.764 362.631 391.648C363.706 392.47 363.706 393.927 364.143 395.104C366.241 400.769 368.797 406.733 372.779 411.302C374.324 413.062 376.346 415.058 379.261 414.536C381.122 414.203 382.802 411.486 383.142 408.706C384.108 400.958 380.761 392.374 378.181 386.036C373.09 373.54 365.605 361.769 358.095 350.839C354.032 344.915 348.568 337.261 340.605 336.37C336.232 335.88 333.606 336.768 331.322 338.528Z" fill="#32CCB0"/>
      <path id="Vector_14" fill-rule="evenodd" clip-rule="evenodd" d="M379.693 451.678C346.542 471.372 305.191 485.685 253.586 487.307C200.313 488.982 156.442 476.188 125.318 454.264C122.538 457.084 119.774 459.811 116.684 463.12C116.077 463.774 113.889 465.952 113.875 466.141C113.828 466.774 118.734 471.499 119.488 472.191C141.61 492.442 172.123 504.542 208.889 509.762C236.21 513.646 268.36 512.278 293.747 507.171C325.644 500.757 353.251 489.868 375.589 473.7C380.077 470.457 384.487 467.237 388.113 463.337C385.081 459.674 382.752 455.309 379.693 451.678Z" fill="#00AE93"/>
      <path id="Vector_15" fill-rule="evenodd" clip-rule="evenodd" d="M158.572 227.969C141.866 227.565 134.657 236.669 125.102 243.732C120.798 246.914 115.353 250.178 110.203 253.45C105.684 256.32 98.709 259.755 96.814 264.463C94.473 270.279 97.641 274.845 101.347 276.768C106.393 279.388 116.342 280.009 124.022 280.009C128.156 280.009 132.616 279.796 136.761 279.796C143.052 279.796 148.23 279.106 151.877 281.955C156.556 285.605 158.841 295.063 160.296 302.896C163.485 319.942 162.925 338.875 166.131 355.373C169.256 371.452 177.3 383.76 174.982 403.954C174.002 412.491 171.739 420.338 169.584 427.708C165.15 442.914 160.253 457.094 155.978 472.406C162.318 474.565 168.628 476.745 175.202 478.668C180.923 462.832 183.621 446.164 190.528 431.809C192.744 427.215 195.153 422.951 198.087 418.852C204.073 410.511 211.568 404.745 220.977 400.283C230.213 395.908 241.953 394.238 255.742 393.806C269.804 393.367 283.321 394.271 294.395 396.615C305.939 399.053 313.921 404.096 320.309 411.943C332.463 426.894 338.498 448 344.711 470.245C349.986 468.11 355.058 465.766 360.689 463.985C356.161 450.556 351.415 438.164 347.087 424.47C342.889 411.204 339.788 396.003 342.117 378.475C343.185 370.432 344.347 361.703 342.762 354.288C341.13 346.604 338.352 341.476 334.131 336.368C329.985 331.358 325.192 327.373 319.013 324.923C312.989 322.532 305.825 321.462 297.42 320.172C289.563 318.967 281.806 317.878 274.1 316.933C266.021 315.941 258.507 314.998 251.642 312.83C237.884 308.483 230.063 299.883 222.49 289.08C208.095 268.545 195.655 246.128 173.686 231.855C174.834 225.954 175.46 215.537 174.551 207.666C174.27 205.221 173.783 200.827 171.31 201.191C168.936 201.538 167.639 204.437 166.564 206.371C163.275 212.295 160.386 221.777 158.572 227.969Z" fill="#FF4E4E"/>
      <path id="Vector_16" fill-rule="evenodd" clip-rule="evenodd" d="M124.457 254.745C123.229 252.358 121.773 248.847 119.442 247.608C118.051 248.51 116.618 249.417 115.171 250.325C115.494 252.087 117.238 253.036 117.975 254.314C121.464 260.354 124.091 268.237 124.67 278.066C124.711 278.742 124.741 279.389 124.778 280C126.814 279.988 128.907 279.939 131.005 279.888C131.045 278.28 130.887 276.49 130.717 274.826C129.786 265.653 127.807 261.271 124.457 254.745Z" fill="white"/>
      <path id="Vector_17" fill-rule="evenodd" clip-rule="evenodd" d="M151.417 254.617C151.209 257.152 152.461 259.32 154.226 259.471C155.988 259.617 157.587 257.685 157.802 255.153C158.015 252.621 156.756 250.447 154.998 250.301C153.229 250.152 151.632 252.085 151.417 254.617Z" fill="white"/>
      <path id="Vector_18" d="M158.423 246.926C159.082 246.926 159.656 246.444 159.758 245.776C159.871 245.037 159.361 244.349 158.617 244.243L150.971 243.118C150.243 243.009 149.549 243.517 149.44 244.254C149.334 244.993 149.844 245.678 150.583 245.789L158.227 246.911C158.296 246.921 158.36 246.926 158.423 246.926Z" fill="white"/>
      <path id="Vector_19" d="M233.502 342.846C235.626 349.333 238.253 355.436 242.138 360.551C246.818 366.719 252.546 371.715 262.654 371.996C262.888 379.241 263.1 386.427 263.256 393.703C263.417 401.149 263.518 408.689 263.518 416.479C263.518 418.567 264.009 420.965 263.733 422.741C263.495 424.255 261.824 426.461 260.709 428.139C258.38 431.663 256.736 434.226 254.449 438.287C253.466 440.026 251.85 442.348 252.285 444.337C253.107 448.06 263.177 447.354 267.838 447.576C273.481 447.843 282.002 448.7 282.737 444.118C283.068 442.039 281.528 439.524 280.361 437.643C277.822 433.552 275.908 431.123 273.234 427.063C272.185 425.468 270.047 422.816 269.776 421.663C269.358 419.861 269.776 417.411 269.776 415.186C269.776 408.048 269.597 400.97 269.422 393.82C269.247 386.462 269.077 379.021 269.129 371.353C280.338 368.455 287.318 360.263 292.234 350.84C296.486 342.704 300.244 332.608 299.673 320.518C298.924 320.407 298.185 320.291 297.419 320.175C289.562 318.97 281.805 317.881 274.099 316.936C266.02 315.944 258.506 315.001 251.641 312.833C241.703 309.691 234.867 304.327 228.985 297.519C228.935 301.24 228.406 304.913 228.319 308.515C228.007 321.687 230.053 332.313 233.502 342.846ZM267.619 428.788C270.149 433.019 272.778 437.157 275.178 441.527C269.903 441.543 264.607 441.588 260.064 440.88C262.524 436.794 264.801 432.513 267.619 428.788Z" fill="#00AE93"/>
      <path id="Vector_20" fill-rule="evenodd" clip-rule="evenodd" d="M128.596 275.806C125.709 275.173 125.107 277.762 124.927 281.636C124.504 290.671 125.465 299.284 126.871 307.117C128.73 317.527 131.834 327.548 135.72 334.977C143.94 350.672 156.25 364.76 173.726 370.387C196.169 377.615 215.533 366.367 226.628 354.624C236.486 344.199 244.302 328.59 247.794 311.435C248.488 308.005 248.111 305.511 245.632 305.39C242.703 305.253 242.592 308.593 242.179 310.573C238.822 326.728 232.118 340.11 222.962 350.305C213.244 361.117 195.806 372.16 174.596 364.989C158.467 359.537 147.596 346.32 140.474 331.516C134.309 318.701 129.835 302.886 130.543 282.5C130.63 279.876 131.6 276.47 128.596 275.806Z" fill="white"/>
    </g>
    <g id="head">
      <path id="Vector_21" fill-rule="evenodd" clip-rule="evenodd" d="M322.586 10.283C320.98 12.173 321.849 14.679 321.826 16.935C321.694 27.182 317.997 42.912 309.573 51.577C306.391 54.851 302.548 56.85 299.824 60.258C308.323 61.054 316.797 61.775 325.721 63.601C339.129 44.734 332.342 24.946 324.949 11.568C324.599 10.937 324.02 10.278 322.586 10.283Z" fill="#FCB02A"/>
      <path id="Vector_22" fill-rule="evenodd" clip-rule="evenodd" d="M288.412 0.490999C288.825 2.882 286.876 4.495 285.797 6.371C280.903 14.884 276.296 29.766 279.065 41.273C280.114 45.62 282.33 49.255 282.937 53.479C275.475 49.733 268.081 45.941 259.775 42.828C257.84 20.335 273.143 7.532 285.818 0.326999C286.42 -0.0140014 287.217 -0.257001 288.412 0.490999Z" fill="#FCB02A"/>
      <path id="Vector_23" fill-rule="evenodd" clip-rule="evenodd" d="M190.368 45.317C194.225 52.099 203.398 57.369 213.657 60.3C224.063 63.274 234.775 62.388 242.164 60.028C238.243 82.578 237.673 102.763 235.805 124.696C234.468 140.376 232.356 156.737 233.308 171.839C233.667 177.454 234.381 182.977 237.763 185.942C242.504 190.085 254.833 192.755 261.65 194.17C273.702 196.676 286.931 197.321 293.216 189.427C297.584 183.942 299.998 175.074 302.615 166.39C305.157 157.948 307.677 148.884 310.198 140.687C315.605 123.086 322.193 106.461 325.817 89.677C327.095 90.123 327.541 91.718 328.345 92.795C335.564 102.513 351.337 111.483 367.338 110.082C371.264 109.739 375.622 109.291 378.386 106.794C377.942 101.373 375.49 96.776 372.891 92.432C366.763 82.173 356.634 71.751 338.714 69.181C337.552 69.016 335.674 68.926 334.098 68.845C332.718 68.779 330.484 69.19 329.688 68.836C328.337 68.236 326.719 63.814 325.481 62.531C322.79 59.755 317.695 57.632 312.633 55.425C303.548 51.466 292.89 47.108 283.566 43.682C274.627 40.394 264.389 36.125 257.728 39.926C252.55 35.291 246.933 31.169 239.043 28.592C228.559 25.164 218.723 26.931 210.722 30.291C202.639 33.69 195.168 38.712 190.368 45.317Z" fill="#D6D6D6"/>
      <path id="Vector_24" fill-rule="evenodd" clip-rule="evenodd" d="M300.624 86.443C298.108 84.917 295.567 86.417 294.513 89.875C293.492 93.229 295.3 99.496 299.039 99.3C300.707 99.21 302.372 96.498 302.814 93.073C303.126 90.719 302.455 87.558 300.624 86.443Z" fill="#292929"/>
      <path id="Vector_25" fill-rule="evenodd" clip-rule="evenodd" d="M261.062 76.607C253.881 71.991 253.278 87.582 260.065 87.126C263.776 86.88 263.568 78.22 261.062 76.607Z" fill="#292929"/>
      <path id="Vector_26" fill-rule="evenodd" clip-rule="evenodd" d="M266.696 168.66C259.434 166.456 250.616 164.33 244.229 165.757C240.565 166.574 234.65 169.688 233.304 175.152C232.196 179.669 234.835 184.712 237.695 187.306C242.188 191.381 252.86 195.205 261.251 196.83C266.396 197.829 271.864 198.257 276.705 197.969C283.482 197.565 288.849 196.391 290.876 188.837C294.362 175.882 279.624 172.579 266.696 168.66Z" fill="#FFDCC5"/>
      <path id="Vector_27" fill-rule="evenodd" clip-rule="evenodd" d="M278.089 179.685C276.544 178.4 274.718 180.084 273.726 183.552C272.76 186.921 273.44 192.906 275.956 192.399C277.073 192.172 278.413 189.38 279.003 185.988C279.4 183.656 279.22 180.62 278.089 179.685Z" fill="#FDAE8B"/>
      <path id="Vector_28" fill-rule="evenodd" clip-rule="evenodd" d="M251.384 173.43C249.834 172.147 248.008 173.829 247.016 177.302C246.055 180.668 246.735 186.656 249.246 186.148C250.368 185.926 251.71 183.127 252.293 179.737C252.69 177.408 252.511 174.368 251.384 173.43Z" fill="#FDAE8B"/>
      <path id="Vector_29" fill-rule="evenodd" clip-rule="evenodd" d="M310.222 74.363C313.678 73.605 315.981 71.058 317.956 67.756C319.425 65.315 320.851 62.555 321.912 59.856C319.255 58.279 315.944 56.868 312.634 55.425C303.549 51.466 292.891 47.107 283.567 43.682C276.319 41.015 268.217 37.706 261.86 38.576C261.959 39.104 262.075 39.634 262.232 40.172C263.791 45.499 268.558 49.002 270.065 54.022C271.948 60.31 270.71 69.804 269.758 78.247C268.976 85.152 267.731 96.913 274.719 99.101C279.11 100.476 283.147 97.296 285.633 94.124C290.098 88.438 291.527 79.278 296.584 75.895C300.371 73.361 306.031 75.279 310.222 74.363Z" fill="#292929"/>
      <path id="Vector_30" fill-rule="evenodd" clip-rule="evenodd" d="M242.559 59.575C238.036 58.886 233.25 59.19 228.27 58.181C223.078 57.13 217.548 55.595 212.24 53.866C204.319 51.283 197.194 47.651 191.181 44.251C190.903 44.602 190.63 44.956 190.368 45.317C194.225 52.099 203.398 57.369 213.657 60.3C224.063 63.274 234.775 62.388 242.164 60.028C242.159 60.057 242.155 60.085 242.15 60.113C242.286 59.935 242.428 59.757 242.559 59.575Z" fill="#292929"/>
      <path id="Vector_31" fill-rule="evenodd" clip-rule="evenodd" d="M374.961 106.688C367.213 105.916 358.279 102.684 349.645 99.752C341.163 96.865 333.528 93.709 328.17 89.642C327.726 89.309 327.546 89.207 326.677 88.992C326.195 89.099 325.96 89.379 325.848 89.725C326.426 90.812 327.553 91.734 328.345 92.796C335.564 102.514 351.337 111.484 367.338 110.083C371.264 109.741 375.622 109.292 378.386 106.795C378.384 106.771 378.379 106.748 378.377 106.724C377.288 106.651 376.123 106.801 374.961 106.688Z" fill="#292929"/>
    </g>
    <g id="left-hand">
      <path id="Vector_32" fill-rule="evenodd" clip-rule="evenodd" d="M401.928 81.369C403.797 77.854 404.682 74.882 405.802 70.956C406.463 68.632 407.061 61.871 409.856 61.668C412.313 61.486 413.957 66.825 414.46 69.933C418.046 92.055 415.121 115.04 407.777 138.728C403.608 152.162 397.584 166.139 386.985 180.842C379.74 190.896 370.728 200.666 362.189 206.538C357.103 210.034 350.661 213.537 344.633 207.086C342.049 204.32 340.761 199.799 340.785 196.39C340.858 187.305 349.282 174.442 356.399 163.746C364.294 151.89 372.013 140.646 377.092 130.469C385.606 113.4 387.746 99.054 388.844 83.487C389.201 78.477 388.976 73.334 389.846 68.364C390.094 66.961 391.488 65.605 393.061 65.732C396.16 65.98 397.4 70.634 398.289 73.133C399.533 76.602 400.227 78.794 401.928 81.369Z" fill="#EAEAEA"/>
      <path id="Vector_33" d="M409.856 61.668C407.061 61.871 406.464 68.632 405.802 70.956C404.682 74.882 403.796 77.854 401.928 81.369C400.227 78.794 399.533 76.602 398.288 73.134C397.4 70.635 396.16 65.981 393.06 65.733C391.487 65.606 390.093 66.961 389.845 68.365C388.976 73.335 389.2 78.478 388.843 83.488C388.626 86.578 388.364 89.618 388.023 92.641L415.869 94.751C416.209 86.365 415.781 78.093 414.459 69.933C413.957 66.825 412.313 61.487 409.856 61.668Z" fill="#242424"/>
      <path id="Vector_34" fill-rule="evenodd" clip-rule="evenodd" d="M386.985 180.842C397.584 166.14 403.608 152.162 407.777 138.728C411.303 127.353 413.797 116.143 415.054 105.11C413.045 103.344 410.604 101.803 407.645 100.542C401.489 97.92 394.868 97.077 392.26 101.938C389.211 107.636 397.405 124.8 398.56 127.797C399.479 130.171 401.028 134.017 399.76 136.717C397.691 141.141 387.897 138.855 383.9 139.946C380.688 140.822 377.002 142.977 376.719 147.394C376.424 152.066 380.085 156.892 383.059 161.366C385.96 165.734 389.966 171.472 387.649 176.059C386.655 178.039 383.978 179.385 382.025 179.796C375.904 181.1 369.711 179.347 363.895 181.499C359.461 183.138 349.213 189.009 349.471 197.234C349.609 201.64 353.488 205.869 359.594 208.207C360.49 207.679 361.358 207.108 362.189 206.536C370.728 200.666 379.74 190.896 386.985 180.842Z" fill="#242424"/>
    </g>
    <g id="left-leg">
      <path id="Vector_35" fill-rule="evenodd" clip-rule="evenodd" d="M308.339 420.601C306.671 425.332 305.063 432.594 300.95 432.192C296.679 431.772 293.974 424.146 292.415 420.324C286.885 406.815 284.558 392.811 283.363 378.168C282.631 369.246 282.047 358.169 285.952 347.001C289.013 338.247 293.428 328.855 298.422 320.61C299.983 318.035 301.736 315.073 303.236 313.124C316.275 296.163 342.411 297.651 350.71 298.62C353.157 298.901 355.271 301.074 355.557 302.747C355.989 305.286 353.377 309.387 352.08 311.773C347.426 320.324 341.514 329.019 336.839 337.117C322.432 362.088 318.102 385.88 322.042 405.81C323.568 413.544 325.515 419.69 326.644 428.265C327.055 431.369 327.584 434.582 324.948 436.07C321.565 437.979 317.297 431.868 315.528 429.725C312.691 426.305 311.016 423.508 308.339 420.601Z" fill="#EAEAEA"/>
      <path id="Vector_36" d="M326.644 428.266C325.515 419.691 323.568 413.545 322.042 405.811C321.711 404.153 321.466 402.459 321.251 400.751L287.516 405.218C288.784 410.325 290.379 415.359 292.415 420.324C293.974 424.146 296.679 431.772 300.95 432.192C305.063 432.594 306.671 425.332 308.339 420.601C311.015 423.509 312.69 426.306 315.527 429.726C317.296 431.868 321.565 437.98 324.947 436.071C327.584 434.583 327.055 431.37 326.644 428.266Z" fill="#242424"/>
      <path id="Vector_37" fill-rule="evenodd" clip-rule="evenodd" d="M304.51 333.22C301.703 331.743 297.861 330.371 293.55 329.388C290.581 335.197 287.969 341.235 285.953 347.001C282.522 356.814 282.556 366.555 283.112 374.827C301.011 377.572 316.622 372.317 317.807 355.156C318.539 344.537 312.041 337.172 304.51 333.22Z" fill="#292929"/>
    </g>
  </g>
</svg>